<?xml version="1.0" standalone="no"?>
<!DOCTYPE svg PUBLIC "-//W3C//DTD SVG 20010904//EN"
 "http://www.w3.org/TR/2001/REC-SVG-20010904/DTD/svg10.dtd">
<svg version="1.0" xmlns="http://www.w3.org/2000/svg"
 width="268.000000pt" height="188.000000pt" viewBox="0 0 268.000000 188.000000"
 preserveAspectRatio="xMidYMid meet">

<g transform="translate(0.000000,188.000000) scale(0.100000,-0.100000)"
fill="#000000" stroke="none">
<path d="M90 1090 l0 -200 45 0 45 0 0 99 c0 107 10 131 54 131 39 0 46 -18
46 -127 l0 -103 45 0 45 0 0 104 c0 120 -10 156 -49 179 -35 21 -67 21 -101 2
-14 -8 -28 -14 -32 -15 -5 0 -8 29 -8 65 l0 65 -45 0 -45 0 0 -200z"/>
<path d="M858 1243 c-22 -3 -28 -10 -28 -30 0 -16 -7 -27 -20 -30 -14 -4 -20
-14 -20 -34 0 -22 5 -29 20 -29 19 0 20 -7 20 -92 1 -62 5 -99 14 -111 18 -23
70 -38 107 -30 24 4 29 11 29 34 0 22 -5 29 -19 29 -37 0 -51 27 -51 101 l0
69 35 0 c32 0 35 2 35 29 0 26 -4 30 -32 33 -29 3 -33 7 -36 36 -2 17 -9 31
-15 31 -7 -1 -24 -4 -39 -6z"/>
<path d="M574 1180 c-12 -5 -25 -13 -29 -19 -9 -16 -25 -13 -25 4 0 10 -11 15
-35 15 l-35 0 0 -200 0 -200 40 0 40 0 0 65 c0 65 6 75 28 53 17 -17 97 -14
127 6 64 42 87 155 45 223 -32 54 -99 76 -156 53z m70 -82 c51 -73 -22 -183
-88 -135 -26 19 -33 99 -12 132 22 33 78 35 100 3z"/>
</g>
</svg>
